<?xml version="1.0" standalone="no"?>
<!DOCTYPE svg PUBLIC "-//W3C//DTD SVG 20010904//EN"
 "http://www.w3.org/TR/2001/REC-SVG-20010904/DTD/svg10.dtd">
<svg version="1.0" xmlns="http://www.w3.org/2000/svg"
 width="404.000000pt" height="404.000000pt" viewBox="0 0 404.000000 404.000000"
 preserveAspectRatio="xMidYMid meet">
<metadata>
Created by potrace 1.11, written by Peter Selinger 2001-2013
</metadata>
<g transform="translate(0.000000,404.000000) scale(0.100000,-0.100000)"
fill="#000000" stroke="none">
<path d="M20 2013 l0 -493 78 0 78 0 -1 488 c-1 268 -3 489 -4 492 0 3 -35 6
-76 6 l-75 0 0 -493z"/>
<path d="M255 2502 c-3 -3 -5 -38 -5 -79 l0 -73 60 0 c32 0 70 -5 83 -11 72
-33 79 -177 9 -208 -14 -7 -54 -12 -89 -12 l-63 0 0 -78 0 -78 99 3 c61 2 113
9 137 19 89 37 130 130 122 276 -8 134 -56 201 -162 230 -44 12 -182 20 -191
11z"/>
<path d="M890 2501 c-77 -24 -155 -96 -184 -172 -15 -40 -17 -80 -14 -330 3
-271 4 -286 25 -325 42 -79 131 -145 214 -158 l35 -5 -1 77 0 77 -39 20 c-79
40 -80 43 -80 323 1 205 4 252 17 278 19 38 38 53 74 63 28 7 28 9 29 84 0 76
0 77 -25 76 -14 0 -37 -4 -51 -8z"/>
<path d="M1042 2434 c1 -60 4 -77 17 -81 40 -12 63 -29 83 -60 19 -32 20 -49
21 -266 0 -128 -3 -247 -7 -264 -8 -36 -54 -79 -92 -89 -23 -6 -25 -10 -24
-68 3 -91 5 -96 43 -89 52 10 124 50 165 94 66 68 72 102 72 413 0 244 -2 275
-19 312 -42 91 -150 174 -228 174 l-32 0 1 -76z"/>
<path d="M1435 2500 c-2 -3 -3 -225 -3 -493 l0 -487 79 0 79 0 0 493 0 493
-76 0 c-41 0 -77 -3 -79 -6z"/>
<path d="M1660 2434 l0 -74 38 -1 c20 -1 41 -1 46 0 16 3 74 -20 93 -37 42
-37 50 -134 17 -191 -22 -38 -61 -54 -133 -55 l-56 -1 0 -69 0 -70 67 -2 c127
-5 146 -39 164 -304 3 -52 8 -98 11 -102 2 -5 36 -8 75 -8 l70 0 -6 83 c-4 45
-9 107 -12 137 -11 144 -26 195 -71 242 l-26 27 31 39 c62 78 74 216 29 316
-42 91 -122 134 -259 140 l-78 4 0 -74z"/>
<path d="M2109 2478 c0 -16 -1 -41 -1 -58 0 -76 -9 -70 111 -70 78 0 110 -4
113 -12 2 -7 3 -194 3 -415 l-1 -403 78 0 78 0 0 415 0 415 113 0 114 0 -1 78
-1 77 -302 0 -303 0 -1 -27z"/>
<path d="M2802 2496 c-3 -5 -5 -226 -5 -490 l0 -481 256 -3 257 -2 0 78 0 78
-167 -1 c-93 0 -173 0 -178 2 -6 2 -10 52 -10 126 l0 122 112 3 111 3 0 79 -1
79 -111 3 -111 3 0 125 0 125 178 3 177 2 0 78 0 77 -251 0 c-142 0 -253 -4
-257 -9z"/>
<path d="M3425 2450 c3 -53 14 -73 275 -492 272 -435 273 -438 307 -438 l33 0
0 103 0 103 -243 389 -243 390 -66 0 -66 0 3 -55z"/>
<path d="M3894 2501 c-2 -2 -4 -95 -4 -205 l0 -201 50 -78 c28 -43 50 -80 50
-82 0 -2 11 -21 25 -41 l25 -37 -2 324 -3 324 -68 0 c-38 0 -70 -2 -73 -4z"/>
<path d="M3424 1885 l1 -365 77 0 78 0 1 38 c0 20 0 134 -1 252 l-1 214 -38
61 c-21 33 -53 84 -70 113 -18 28 -36 52 -40 52 -4 0 -7 -164 -7 -365z"/>
</g>
</svg>
